<svg width="31" height="29" viewBox="0 0 31 29" fill="none" xmlns="http://www.w3.org/2000/svg">
<path d="M30.2108 1.04492C29.8931 0.776409 29.5085 0.598775 29.0977 0.530901C28.6869 0.463026 28.2653 0.507446 27.8778 0.65944L1.4563 11.0103C0.992872 11.1864 0.600331 11.5096 0.339121 11.9301C0.0779101 12.3506 -0.0374848 12.8451 0.0107042 13.3374C0.0536966 13.8296 0.255476 14.2945 0.585783 14.6626C0.91609 15.0307 1.35712 15.2821 1.84275 15.379L8.55548 16.7068V25.0731C8.55524 25.5257 8.68979 25.9682 8.94207 26.3444C9.19435 26.7206 9.55298 27.0135 9.97245 27.1861C10.2501 27.2975 10.5463 27.3557 10.8455 27.3574C11.1463 27.3585 11.4443 27.2997 11.722 27.1844C11.9997 27.0692 12.2516 26.8999 12.4629 26.6864L16.1842 22.9886L21.8092 27.9285C22.2244 28.2938 22.7583 28.4967 23.312 28.4996C23.5555 28.5046 23.7979 28.4659 24.0277 28.3854C24.4054 28.2661 24.7453 28.0507 25.0139 27.7602C25.2825 27.4697 25.4705 27.1144 25.5591 26.7292L30.9408 3.28641C31.0348 2.88189 31.0166 2.45945 30.888 2.06451C30.7594 1.66957 30.5252 1.31707 30.2108 1.04492ZM9.42856 14.551L2.30076 13.1375L22.2815 5.29946L9.42856 14.551ZM10.8455 25.0731V18.3058L14.4524 21.4753L10.8455 25.0731ZM23.3263 26.2152L11.5325 15.8644L28.5219 3.62905L23.3263 26.2152Z" fill="white"/>
</svg>
