<svg width="350" height="428" viewBox="0 0 350 428" fill="none" xmlns="http://www.w3.org/2000/svg">
<path d="M253.555 10.6492C394.951 -8.22326 468.679 109.359 463.947 254.988C452.89 436.044 240.954 462.752 106.148 389.436C-81.5504 286.951 9.89697 79.6889 147.841 18.9387C256.259 -28.8874 442.775 8.8814 468.148 189.675C497.142 399.398 298.362 443.282 177.148 396.412C128.962 377.635 101.972 349.899 82.9728 315.857C16.391 174.123 133.766 24.4571 277.89 46.3396C371.075 60.6731 437.343 114.233 435.943 208.929C434.229 281.935 394.734 352.623 323.203 380.478C167.733 439.818 -9.48853 278.662 43.6224 152.527C56.876 120.611 85.0972 86.4496 123.723 63.5876C239.288 -7.36325 499.507 42.2546 448.545 249.899C442.461 274.649 432.225 297.678 418.948 317.912C322.02 464.544 105.207 410.267 41.9808 329.546C9.82454 288.624 21.6538 248.562 21.1951 252.312C8.61747 355.991 146.078 407.687 236.536 407.807C375.735 411.127 467.182 292.064 449.318 172.57C434.181 74.075 336.553 38.6473 235.908 37.5484C114.815 36.4256 -8.42631 147.94 58.1555 270.898C131.835 404.773 323.324 433.01 401.252 309.789C452.142 229.259 454.991 78.1839 277.214 50.568C32.3725 13.1098 -37.0821 425.604 287.112 409.288C406.298 402.264 483.188 327.229 465.106 190.081C440.265 11.4375 255.97 -25.8535 148.854 21.2321C13.1078 80.8356 -79.4018 285.685 107.018 387.859C240.302 460.626 451.49 435.423 462.861 254.964C467.713 112.417 396.472 -7.72158 253.604 11.1031C253.29 11.1509 253.217 10.6731 253.531 10.6253L253.555 10.6492Z" fill="#B0B0B0" fill-opacity="0.41"/>
</svg>
