<svg width="18" height="18" viewBox="0 0 18 18" fill="none" xmlns="http://www.w3.org/2000/svg">
<path d="M17 9C16.7333 9 16.496 8.904 16.288 8.712C16.0793 8.52067 15.9583 8.28333 15.925 8C15.7083 6.45 15.0543 5.129 13.963 4.037C12.871 2.94567 11.55 2.29167 10 2.075C9.71667 2.04167 9.47933 1.925 9.288 1.725C9.096 1.525 9 1.28333 9 1C9 0.716667 9.1 0.479 9.3 0.287C9.5 0.0956666 9.73333 0.0166666 10 0.05C12.1 0.283333 13.8917 1.14167 15.375 2.625C16.8583 4.10833 17.7167 5.9 17.95 8C17.9833 8.26667 17.904 8.5 17.712 8.7C17.5207 8.9 17.2833 9 17 9ZM12.825 9C12.6083 9 12.4167 8.925 12.25 8.775C12.0833 8.625 11.9583 8.425 11.875 8.175C11.7417 7.69167 11.4877 7.26233 11.113 6.887C10.7377 6.51233 10.3083 6.25833 9.825 6.125C9.575 6.04167 9.375 5.91667 9.225 5.75C9.075 5.58333 9 5.38333 9 5.15C9 4.81667 9.11667 4.54567 9.35 4.337C9.58333 4.129 9.84167 4.05833 10.125 4.125C11.0583 4.34167 11.8627 4.78733 12.538 5.462C13.2127 6.13733 13.6583 6.94167 13.875 7.875C13.9417 8.15833 13.8667 8.41667 13.65 8.65C13.4333 8.88333 13.1583 9 12.825 9ZM16.95 18C14.8 18 12.7043 17.5207 10.663 16.562C8.621 15.604 6.81267 14.3373 5.238 12.762C3.66267 11.1873 2.396 9.379 1.438 7.337C0.479334 5.29567 0 3.2 0 1.05C0 0.75 0.0999999 0.5 0.3 0.3C0.5 0.0999999 0.75 0 1.05 0H5.1C5.33333 0 5.54167 0.0749999 5.725 0.225C5.90833 0.375 6.01667 0.566667 6.05 0.8L6.7 4.3C6.73333 4.53333 6.72933 4.74567 6.688 4.937C6.646 5.129 6.55 5.3 6.4 5.45L4 7.9C4.7 9.1 5.575 10.225 6.625 11.275C7.675 12.325 8.83333 13.2333 10.1 14L12.45 11.65C12.6 11.5 12.796 11.3873 13.038 11.312C13.2793 11.2373 13.5167 11.2167 13.75 11.25L17.2 11.95C17.4333 12 17.625 12.1123 17.775 12.287C17.925 12.4623 18 12.6667 18 12.9V16.95C18 17.25 17.9 17.5 17.7 17.7C17.5 17.9 17.25 18 16.95 18Z" fill="#302929"/>
</svg>
