<svg width="22" height="22" viewBox="0 0 22 22" fill="none" xmlns="http://www.w3.org/2000/svg">
<path fill-rule="evenodd" clip-rule="evenodd" d="M6.87164 0.0336914H14.8164C18.4724 0.0336914 21.4371 2.99843 21.4371 6.65436V14.5992C21.4371 18.2551 18.4724 21.2198 14.8164 21.2198H6.87164C3.21571 21.2198 0.250977 18.2551 0.250977 14.5992V6.65436C0.250977 2.99843 3.21571 0.0336914 6.87164 0.0336914ZM14.8165 19.2333C17.372 19.2333 19.4509 17.1544 19.4509 14.5989V6.65406C19.4509 4.09848 17.372 2.01959 14.8165 2.01959H6.87166C4.31608 2.01959 2.2372 4.09848 2.2372 6.65406V14.5989C2.2372 17.1544 4.31608 19.2333 6.87166 19.2333H14.8165ZM5.43883 10.6258C5.43883 7.64111 7.85876 5.22119 10.8435 5.22119C13.8282 5.22119 16.2481 7.64111 16.2481 10.6258C16.2481 13.6105 13.8282 16.0305 10.8435 16.0305C7.85876 16.0305 5.43883 13.6105 5.43883 10.6258ZM7.46554 10.6259C7.46554 12.4878 8.98153 14.0038 10.8434 14.0038C12.7053 14.0038 14.2213 12.4878 14.2213 10.6259C14.2213 8.7627 12.7053 7.24805 10.8434 7.24805C8.98153 7.24805 7.46554 8.7627 7.46554 10.6259ZM16.4644 5.65466C16.8225 5.65466 17.1129 5.36429 17.1129 5.0061C17.1129 4.64791 16.8225 4.35754 16.4644 4.35754C16.1062 4.35754 15.8158 4.64791 15.8158 5.0061C15.8158 5.36429 16.1062 5.65466 16.4644 5.65466Z" fill="white"/>
</svg>
