<svg width="55" height="55" viewBox="0 0 55 55" fill="none" xmlns="http://www.w3.org/2000/svg">
<path d="M6.01562 30.9375H31.7969C32.4804 30.9368 33.1357 30.6649 33.6191 30.1816C34.1024 29.6982 34.3743 29.0429 34.375 28.3594V24.9219C34.3743 24.2383 34.1024 23.583 33.6191 23.0997C33.1357 22.6164 32.4804 22.3445 31.7969 22.3438H6.01562C4.87643 22.3451 3.78428 22.7982 2.97875 23.6038C2.17322 24.4093 1.72009 25.5014 1.71875 26.6406V33.5156C1.72009 34.6548 2.17322 35.747 2.97875 36.5525C3.78428 37.358 4.87643 37.8112 6.01562 37.8125C6.24355 37.8125 6.46213 37.722 6.62329 37.5608C6.78446 37.3996 6.875 37.181 6.875 36.9531C6.875 36.7252 6.78446 36.5066 6.62329 36.3455C6.46213 36.1843 6.24355 36.0938 6.01562 36.0938C5.33186 36.0938 4.67611 35.8221 4.19262 35.3386C3.70912 34.8551 3.4375 34.1994 3.4375 33.5156C3.4375 32.8319 3.70912 32.1761 4.19262 31.6926C4.67611 31.2091 5.33186 30.9375 6.01562 30.9375ZM3.4375 26.6406C3.43825 25.9571 3.71011 25.3018 4.19344 24.8184C4.67677 24.3351 5.33209 24.0632 6.01562 24.0625H31.7969C32.0247 24.0627 32.2432 24.1532 32.4044 24.3144C32.5655 24.4755 32.6561 24.694 32.6562 24.9219V28.3594C32.6561 28.5872 32.5655 28.8057 32.4044 28.9669C32.2432 29.128 32.0247 29.2186 31.7969 29.2188H29.2188V26.6406C29.2188 26.4127 29.1282 26.1941 28.967 26.033C28.8059 25.8718 28.5873 25.7812 28.3594 25.7812C28.1315 25.7812 27.9129 25.8718 27.7517 26.033C27.5905 26.1941 27.5 26.4127 27.5 26.6406V29.2188H24.0625V27.5C24.0625 27.2721 23.972 27.0535 23.8108 26.8923C23.6496 26.7312 23.431 26.6406 23.2031 26.6406C22.9752 26.6406 22.7566 26.7312 22.5955 26.8923C22.4343 27.0535 22.3438 27.2721 22.3438 27.5V29.2188H18.9062V26.6406C18.9062 26.4127 18.8157 26.1941 18.6545 26.033C18.4934 25.8718 18.2748 25.7812 18.0469 25.7812C17.819 25.7812 17.6004 25.8718 17.4392 26.033C17.278 26.1941 17.1875 26.4127 17.1875 26.6406V29.2188H13.75V27.5C13.75 27.2721 13.6595 27.0535 13.4983 26.8923C13.3371 26.7312 13.1185 26.6406 12.8906 26.6406C12.6627 26.6406 12.4441 26.7312 12.283 26.8923C12.1218 27.0535 12.0312 27.2721 12.0312 27.5V29.2188H8.59375V26.6406C8.59375 26.4127 8.50321 26.1941 8.34204 26.033C8.18088 25.8718 7.9623 25.7812 7.73438 25.7812C7.50645 25.7812 7.28787 25.8718 7.12671 26.033C6.96554 26.1941 6.875 26.4127 6.875 26.6406V29.2188H6.01562C5.08545 29.2176 4.18029 29.5199 3.4375 30.0798V26.6406ZM10.0439 20.5386C10.1454 20.5879 10.2557 20.6168 10.3683 20.6235C10.481 20.6303 10.5938 20.6147 10.7005 20.5778C10.8071 20.5408 10.9054 20.4832 10.9898 20.4082C11.0741 20.3332 11.1428 20.2423 11.192 20.1408C11.9548 18.4145 13.2244 16.961 14.8324 15.9731C16.4403 14.9852 18.3107 14.5096 20.1953 14.6094C22.7004 14.6101 25.1078 15.5811 26.9125 17.3184C27.0716 17.468 27.2817 17.5513 27.5 17.5513C27.7183 17.5513 27.9284 17.468 28.0875 17.3184C29.8922 15.5811 32.2996 14.6101 34.8047 14.6094C41.7317 14.6094 45.5469 19.7975 45.5469 29.2188C45.5469 30.0211 45.5066 30.8611 45.4269 31.7172C45.4058 31.9442 45.4758 32.1702 45.6213 32.3457C45.7669 32.5212 45.9762 32.6316 46.2032 32.6529C46.2309 32.6554 46.2577 32.6562 46.2837 32.6562C46.4977 32.656 46.7039 32.576 46.8621 32.4318C47.0202 32.2876 47.1189 32.0897 47.1389 31.8766C47.2228 30.9677 47.2656 30.0731 47.2656 29.2188C47.2656 18.8416 42.7237 12.8906 34.8047 12.8906C33.1731 12.8862 31.5602 13.2374 30.0781 13.9198V13.75C30.0795 12.6108 30.5326 11.5187 31.3381 10.7131C32.1437 9.9076 33.2358 9.45446 34.375 9.45312C35.0588 9.45312 35.7145 9.1815 36.198 8.69801C36.6815 8.21452 36.9531 7.55876 36.9531 6.875C36.9531 6.19124 36.6815 5.53548 36.198 5.05199C35.7145 4.5685 35.0588 4.29688 34.375 4.29688C31.8687 4.29971 29.466 5.29657 27.6938 7.06876C25.9216 8.84095 24.9247 11.2437 24.9219 13.75V13.9198C23.4398 13.2374 21.8269 12.8862 20.1953 12.8906C17.9884 12.7941 15.8033 13.3619 13.9226 14.5207C12.042 15.6794 10.5522 17.3759 9.64615 19.3905C9.59687 19.492 9.56806 19.6022 9.56138 19.7148C9.5547 19.8275 9.57028 19.9403 9.60722 20.0469C9.64416 20.1535 9.70174 20.2518 9.77668 20.3362C9.85161 20.4205 9.94243 20.4893 10.0439 20.5386ZM26.6406 13.75C26.6429 11.6994 27.4585 9.73344 28.9084 8.28344C30.3584 6.83345 32.3244 6.01786 34.375 6.01562C34.6029 6.01562 34.8215 6.10617 34.9827 6.26733C35.1438 6.42849 35.2344 6.64708 35.2344 6.875C35.2344 7.10292 35.1438 7.32151 34.9827 7.48267C34.8215 7.64383 34.6029 7.73438 34.375 7.73438C32.7801 7.7363 31.2512 8.37071 30.1234 9.49844C28.9957 10.6262 28.3613 12.1551 28.3594 13.75V14.8998C28.0664 15.1016 27.7792 15.3158 27.5 15.5468C27.2208 15.3158 26.9336 15.1016 26.6406 14.8998V13.75ZM41.6898 44.8763C41.8675 45.019 41.9814 45.2265 42.0062 45.4531C42.0311 45.6798 41.965 45.907 41.8223 46.0848C39.3978 49.1061 36.5252 50.7031 33.5156 50.7031C31.3046 50.7164 29.165 49.9206 27.5 48.4657C25.835 49.9206 23.6954 50.7164 21.4844 50.7031C14.387 50.7031 9.36752 42.122 8.07846 33.6449C8.04477 33.4199 8.10169 33.1907 8.23674 33.0077C8.37178 32.8246 8.57393 32.7026 8.79883 32.6683C9.02373 32.6341 9.25302 32.6905 9.43641 32.8251C9.6198 32.9597 9.74231 33.1616 9.77707 33.3864C10.9277 40.9479 15.4218 48.9844 21.4844 48.9844C22.4946 48.9851 23.4947 48.7821 24.4248 48.3876C25.3548 47.9931 26.1958 47.4151 26.8974 46.6882C27.0581 46.5301 27.2746 46.4415 27.5 46.4415C27.7254 46.4415 27.9419 46.5301 28.1026 46.6882C28.8042 47.4151 29.6452 47.9931 30.5752 48.3876C31.5053 48.7821 32.5054 48.9851 33.5156 48.9844C36.6367 48.9844 39.026 46.8225 40.4813 45.0089C40.6242 44.8315 40.8317 44.718 41.0581 44.6932C41.2846 44.6683 41.5117 44.7342 41.6898 44.8763ZM50.0561 27.6385C49.8353 27.5822 49.6012 27.6159 49.4052 27.7322C49.3082 27.7898 49.2235 27.8659 49.1559 27.9562C49.0883 28.0466 49.0391 28.1493 49.0112 28.2587C48.9833 28.368 48.9773 28.4817 48.9933 28.5934C49.0094 28.7051 49.0473 28.8125 49.1049 28.9095C49.2212 29.1055 49.4106 29.2472 49.6314 29.3035C50.2386 29.4607 50.7676 29.8339 51.1192 30.3532C51.4709 30.8724 51.6211 31.5021 51.5418 32.1243C51.4624 32.7464 51.1589 33.3182 50.6881 33.7325C50.2173 34.1469 49.6115 34.3753 48.9844 34.375H23.2031C22.5196 34.3757 21.8643 34.6476 21.3809 35.1309C20.8976 35.6143 20.6257 36.2696 20.625 36.9531V40.3906C20.6257 41.0742 20.8976 41.7295 21.3809 42.2128C21.8643 42.6961 22.5196 42.968 23.2031 42.9688H48.9844C50.1236 42.9674 51.2157 42.5143 52.0212 41.7087C52.8268 40.9032 53.2799 39.8111 53.2812 38.6719V31.7969C53.2829 30.8437 52.9667 29.9172 52.3825 29.164C51.7984 28.4108 50.9797 27.874 50.0561 27.6385ZM51.5625 38.6719C51.5618 39.3554 51.2899 40.0107 50.8066 40.4941C50.3232 40.9774 49.6679 41.2493 48.9844 41.25H48.125V38.6719C48.125 38.444 48.0345 38.2254 47.8733 38.0642C47.7121 37.903 47.4935 37.8125 47.2656 37.8125C47.0377 37.8125 46.8191 37.903 46.658 38.0642C46.4968 38.2254 46.4062 38.444 46.4062 38.6719V41.25H42.9688V39.5312C42.9688 39.3033 42.8782 39.0847 42.717 38.9236C42.5559 38.7624 42.3373 38.6719 42.1094 38.6719C41.8815 38.6719 41.6629 38.7624 41.5017 38.9236C41.3405 39.0847 41.25 39.3033 41.25 39.5312V41.25H37.8125V38.6719C37.8125 38.444 37.722 38.2254 37.5608 38.0642C37.3996 37.903 37.181 37.8125 36.9531 37.8125C36.7252 37.8125 36.5066 37.903 36.3455 38.0642C36.1843 38.2254 36.0938 38.444 36.0938 38.6719V41.25H32.6562V39.5312C32.6562 39.3033 32.5657 39.0847 32.4045 38.9236C32.2434 38.7624 32.0248 38.6719 31.7969 38.6719C31.569 38.6719 31.3504 38.7624 31.1892 38.9236C31.028 39.0847 30.9375 39.3033 30.9375 39.5312V41.25H27.5V38.6719C27.5 38.444 27.4095 38.2254 27.2483 38.0642C27.0871 37.903 26.8685 37.8125 26.6406 37.8125C26.4127 37.8125 26.1941 37.903 26.033 38.0642C25.8718 38.2254 25.7812 38.444 25.7812 38.6719V41.25H23.2031C22.9753 41.2498 22.7568 41.1593 22.5956 40.9981C22.4345 40.837 22.3439 40.6185 22.3438 40.3906V36.9531C22.3439 36.7253 22.4345 36.5068 22.5956 36.3456C22.7568 36.1845 22.9753 36.0939 23.2031 36.0938H48.9844C49.9146 36.0949 50.8197 35.7926 51.5625 35.2327V38.6719Z" fill="black"/>
</svg>

