<svg width="20" height="19" viewBox="0 0 20 19" fill="none" xmlns="http://www.w3.org/2000/svg">
<path d="M19.4909 0.569544C19.2859 0.39693 19.0377 0.282737 18.7727 0.239103C18.5077 0.195469 18.2357 0.224025 17.9857 0.321736L0.93955 6.97583C0.640563 7.08905 0.38731 7.29682 0.218787 7.56714C0.0502646 7.83746 -0.0241838 8.15535 0.00690595 8.47186C0.034643 8.78824 0.164823 9.08716 0.377925 9.32378C0.591026 9.56042 0.875564 9.722 1.18887 9.78432L5.51966 10.6379V16.0162C5.51951 16.3072 5.60632 16.5916 5.76908 16.8335C5.93184 17.0753 6.16321 17.2637 6.43384 17.3746C6.61294 17.4462 6.80405 17.4836 6.99712 17.4847C7.19117 17.4854 7.3834 17.4476 7.56257 17.3735C7.74174 17.2995 7.90425 17.1906 8.04057 17.0533L10.4414 14.6762L14.0704 17.8518C14.3383 18.0867 14.6828 18.2171 15.04 18.219C15.1971 18.2222 15.3535 18.1973 15.5017 18.1455C15.7454 18.0689 15.9647 17.9304 16.138 17.7436C16.3113 17.5569 16.4326 17.3285 16.4898 17.0809L19.9618 2.0105C20.0225 1.75045 20.0107 1.47889 19.9277 1.225C19.8447 0.971105 19.6937 0.744499 19.4909 0.569544ZM6.08294 9.25199L1.48436 8.34336L14.3752 3.30461L6.08294 9.25199ZM6.99712 16.0162V11.6658L9.32411 13.7034L6.99712 16.0162ZM15.0493 16.7505L7.44035 10.0964L18.4012 2.23077L15.0493 16.7505Z" fill="white"/>
</svg>


